<?xml version="1.0" standalone="no"?><!DOCTYPE svg PUBLIC "-//W3C//DTD SVG 1.1//EN" "http://www.w3.org/Graphics/SVG/1.1/DTD/svg11.dtd"><svg t="1539420525174" class="icon" style="" viewBox="0 0 1024 1024" version="1.1" xmlns="http://www.w3.org/2000/svg" p-id="1036" xmlns:xlink="http://www.w3.org/1999/xlink" width="200" height="200"><defs><style type="text/css"></style></defs><path d="M512 941.83424C274.98496 941.83424 82.16576 749.0048 82.16576 512S274.98496 82.16576 512 82.16576s429.83424 192.80896 429.83424 429.824S749.0048 941.83424 512 941.83424z m0-817.59232c-213.78048 0-387.70688 173.94688-387.70688 387.74784 0 213.8112 173.9264 387.75808 387.70688 387.75808s387.70688-173.94688 387.70688-387.75808c0-213.79072-173.9264-387.74784-387.70688-387.74784zM715.15136 757.8624c-6.02112 0-10.9568-1.95584-14.68416-5.82656-7.45472-7.75168-7.17824-20.57216-7.12704-21.99552 0-96.50176-84.72576-181.22752-181.30944-181.22752-96.50176 0-181.22752 84.66432-181.30944 181.1456 0.0512 9.78944-2.4576 17.5104-7.23968 22.30272-3.69664 3.72736-8.5504 5.60128-14.40768 5.60128a27.10528 27.10528 0 0 1-27.09504-27.06432c0-93.10208 54.85568-176.14848 140.00128-212.36736a152.9856 152.9856 0 0 1-62.84288-123.4944c0-84.28544 68.58752-152.86272 152.8832-152.86272 84.28544 0 152.87296 68.56704 152.87296 152.86272 0 48.81408-23.42912 94.7712-62.8224 123.4944a229.44768 229.44768 0 0 1 140.01152 211.70176c0 15.5648-11.8272 27.72992-26.9312 27.72992zM512 285.3376c-60.44672 0-109.60896 49.18272-109.60896 109.62944 0 60.45696 49.17248 109.63968 109.60896 109.63968s109.6192-49.18272 109.6192-109.63968c0-60.44672-49.18272-109.62944-109.6192-109.62944z" fill="#bfbfbf" p-id="1037"></path><path d="M512 940.25728c-236.14464 0-428.25728-192.11264-428.25728-428.26752S275.85536 83.74272 512 83.74272s428.25728 192.1024 428.25728 428.24704S748.1344 940.25728 512 940.25728z m0-817.58208c-214.65088 0-389.28384 174.65344-389.28384 389.31456 0 214.6816 174.63296 389.3248 389.28384 389.3248s389.28384-174.65344 389.28384-389.3248C901.28384 297.32864 726.65088 122.6752 512 122.6752z m203.15136 633.62048c-5.57056 0-10.12736-1.80224-13.54752-5.35552-6.99392-7.26016-6.73792-19.47648-6.67648-20.84864 0-97.37216-85.46304-182.84544-182.8864-182.84544-97.34144 0-182.80448 85.38112-182.8864 182.72256 0.09216 16.81408-7.44448 26.33728-20.0704 26.33728a25.51808 25.51808 0 0 1-25.51808-25.48736c0-94.0032 55.48032-176.5888 141.62944-211.99872a151.0912 151.0912 0 0 1-64.48128-123.86304c0-83.42528 67.87072-151.296 151.30624-151.296s151.30624 67.86048 151.30624 151.296c0 49.43872-24.03328 95.49824-64.4608 123.86304 86.12864 35.40992 141.6192 117.99552 141.64992 211.33312-0.01024 14.7968-11.38688 26.14272-25.36448 26.14272zM512 283.77088c-61.31712 0-111.19616 49.88928-111.19616 111.19616 0 61.32736 49.87904 111.2064 111.19616 111.2064s111.19616-49.88928 111.19616-111.2064C623.18592 333.66016 573.31712 283.77088 512 283.77088z" fill="#bfbfbf" p-id="1038"></path><path d="M512 940.01152c-236.02176 0-428.032-192.01024-428.032-428.02176S275.97824 83.968 512 83.968s428.032 192.01024 428.032 428.02176S748.01152 940.01152 512 940.01152z m0-817.5616c-214.784 0-389.51936 174.7456-389.51936 389.55008S297.216 901.53984 512 901.53984s389.51936-174.7456 389.51936-389.55008S726.77376 122.44992 512 122.44992z m203.15136 633.63072c-5.49888 0-10.00448-1.77152-13.38368-5.2736-6.93248-7.19872-6.67648-19.33312-6.62528-20.69504 0-97.52576-85.56544-183.0912-183.11168-183.0912-97.46432 0-183.02976 85.49376-183.12192 182.9376 0.09216 16.68096-7.36256 26.12224-19.83488 26.12224a25.2928 25.2928 0 0 1-25.28256-25.26208c0-94.07488 55.58272-176.6912 141.8752-211.94752a150.87616 150.87616 0 0 1-64.7168-123.92448c0-83.29216 67.77856-151.06048 151.07072-151.06048s151.07072 67.76832 151.07072 151.06048c0 49.5104-24.12544 95.61088-64.70656 123.92448 86.272 35.2768 141.86496 117.87264 141.89568 211.27168 0 14.67392-11.27424 25.93792-25.12896 25.93792zM512 283.55584c-61.44 0-111.4112 49.98144-111.4112 111.4112 0 61.44 49.9712 111.43168 111.4112 111.43168s111.42144-49.98144 111.42144-111.43168c0-61.42976-49.99168-111.4112-111.42144-111.4112z" fill="#bfbfbf" p-id="1039"></path><path d="M512 85.54496C276.85888 85.54496 85.54496 276.86912 85.54496 512S276.86912 938.45504 512 938.45504 938.45504 747.13088 938.45504 512C938.4448 276.86912 747.14112 85.54496 512 85.54496z m0 817.5616c-215.6544 0-391.08608-175.45216-391.08608-391.1168 0-215.6544 175.43168-391.1168 391.08608-391.1168 215.66464 0 391.09632 175.45216 391.09632 391.1168S727.6544 903.10656 512 903.10656z m83.05664-383.86688c40.04864-26.80832 66.4576-72.46848 66.4576-124.28288 0-82.56512-66.92864-149.49376-149.49376-149.49376S362.52672 312.39168 362.52672 394.9568c0 51.84512 26.39872 97.47456 66.46784 124.28288-84.09088 33.14688-143.62624 115.0464-143.62624 210.90304 0 0.19456 0 0.36864 0.02048 0.55296l-0.02048 0.12288a23.69536 23.69536 0 0 0 23.7056 23.69536c13.07648 0 18.36032-10.5984 18.36032-23.69536 0-0.28672-0.07168-0.55296-0.09216-0.86016 0.09216-98.9696 85.68832-184.51456 184.68864-184.51456 99.06176 0 184.68864 85.62688 184.68864 184.68864 0 0.12288-1.2288 24.3712 18.42176 24.3712a23.552 23.552 0 0 0 23.552-23.53152l-0.02048-0.17408 0.02048-0.65536c-0.03072-95.85664-59.57632-177.75616-143.63648-210.90304zM512 507.96544c-62.40256 0-112.9984-50.59584-112.9984-112.9984 0-62.42304 50.59584-112.98816 112.9984-112.98816 62.42304 0 112.9984 50.59584 112.9984 112.98816-0.01024 62.40256-50.59584 112.9984-112.9984 112.9984z m0 0" fill="#bfbfbf" p-id="1040"></path></svg>